<svg xmlns="http://www.w3.org/2000/svg" xmlns:xlink="http://www.w3.org/1999/xlink" width="300" zoomAndPan="magnify" viewBox="0 0 224.87999 37.5" height="50" preserveAspectRatio="xMidYMid meet" version="1.0"><defs><g/></defs><g fill="#ffffff" fill-opacity="1"><g transform="translate(3.645098, 26.535984)"><g><path d="M 9.988281 -17.125 L 7.132812 -17.125 L 7.132812 -14.269531 L 9.988281 -14.269531 Z M 1.425781 -8.5625 L 4.28125 -8.5625 L 4.28125 -11.414062 L 1.425781 -11.414062 Z M 4.28125 -5.707031 L 7.132812 -5.707031 L 7.132812 -8.5625 L 4.28125 -8.5625 Z M 4.28125 -11.414062 L 7.132812 -11.414062 L 7.132812 -14.269531 L 4.28125 -14.269531 Z M 7.132812 -2.855469 L 9.988281 -2.855469 L 9.988281 -5.707031 L 7.132812 -5.707031 Z M 9.988281 0 L 12.84375 0 L 12.84375 -2.855469 L 9.988281 -2.855469 Z M 9.988281 -17.125 L 12.84375 -17.125 L 12.84375 -19.976562 L 9.988281 -19.976562 Z M 9.988281 -17.125 "/></g></g></g><g fill="#f588b8" fill-opacity="1"><g transform="translate(17.899546, 26.535984)"><g><path d="M 7.132812 0 L 9.988281 0 L 9.988281 -17.125 L 15.695312 -17.125 L 15.695312 -19.976562 L 1.425781 -19.976562 L 1.425781 -17.125 L 7.132812 -17.125 Z M 7.132812 0 "/></g></g></g><g fill="#f588b8" fill-opacity="1"><g transform="translate(35.015687, 26.535984)"><g><path d="M 1.425781 0 L 4.28125 0 L 4.28125 -8.5625 L 7.132812 -8.5625 L 7.132812 -11.414062 L 4.28125 -11.414062 L 4.28125 -14.269531 L 1.425781 -14.269531 Z M 7.132812 -11.414062 L 12.84375 -11.414062 L 12.84375 -14.269531 L 7.132812 -14.269531 Z M 7.132812 -11.414062 "/></g></g></g><g fill="#ffffff" fill-opacity="1"><g transform="translate(49.277262, 26.535984)"><g><path d="M 4.28125 0 L 15.695312 0 L 15.695312 -11.414062 L 12.84375 -11.414062 L 12.84375 -8.5625 L 4.28125 -8.5625 L 4.28125 -5.707031 L 12.84375 -5.707031 L 12.84375 -2.855469 L 4.28125 -2.855469 Z M 1.425781 -2.855469 L 4.28125 -2.855469 L 4.28125 -5.707031 L 1.425781 -5.707031 Z M 4.28125 -11.414062 L 12.84375 -11.414062 L 12.84375 -14.269531 L 4.28125 -14.269531 Z M 4.28125 -11.414062 "/></g></g></g><g fill="#78d3f3" fill-opacity="1"><g transform="translate(66.3826, 26.535984)"><g><path d="M 12.84375 0 L 15.695312 0 L 15.695312 -11.414062 L 12.84375 -11.414062 Z M 1.425781 0 L 4.28125 0 L 4.28125 -11.414062 L 1.425781 -11.414062 Z M 4.28125 -11.414062 L 12.84375 -11.414062 L 12.84375 -14.269531 L 4.28125 -14.269531 Z M 4.28125 -11.414062 "/></g></g></g><g fill="#78d3f3" fill-opacity="1"><g transform="translate(83.498741, 26.535984)"><g><path d="M 4.28125 -11.414062 L 1.425781 -11.414062 L 1.425781 -8.5625 L 4.28125 -8.5625 Z M 1.425781 0 L 9.988281 0 L 9.988281 -2.855469 L 1.425781 -2.855469 Z M 4.28125 -5.707031 L 9.988281 -5.707031 L 9.988281 -8.5625 L 4.28125 -8.5625 Z M 4.28125 -11.414062 L 12.84375 -11.414062 L 12.84375 -14.269531 L 4.28125 -14.269531 Z M 9.988281 -2.855469 L 12.84375 -2.855469 L 12.84375 -5.707031 L 9.988281 -5.707031 Z M 9.988281 -2.855469 "/></g></g></g><g fill="#ffffff" fill-opacity="1"><g transform="translate(97.760316, 26.535984)"><g><path d="M 1.425781 -2.855469 L 4.28125 -2.855469 L 4.28125 -17.125 L 1.425781 -17.125 Z M 4.28125 0 L 12.84375 0 L 12.84375 -2.855469 L 4.28125 -2.855469 Z M 4.28125 -17.125 L 12.84375 -17.125 L 12.84375 -19.976562 L 4.28125 -19.976562 Z M 12.84375 -2.855469 L 15.695312 -2.855469 L 15.695312 -5.707031 L 12.84375 -5.707031 Z M 12.84375 -14.269531 L 15.695312 -14.269531 L 15.695312 -17.125 L 12.84375 -17.125 Z M 12.84375 -14.269531 "/></g></g></g><g fill="#ffffff" fill-opacity="1"><g transform="translate(114.876457, 26.535984)"><g><path d="M 12.84375 -2.855469 L 4.28125 -2.855469 L 4.28125 0 L 12.84375 0 Z M 1.425781 -2.855469 L 4.28125 -2.855469 L 4.28125 -11.414062 L 1.425781 -11.414062 Z M 4.28125 -11.414062 L 12.84375 -11.414062 L 12.84375 -14.269531 L 4.28125 -14.269531 Z M 12.84375 -2.855469 L 15.695312 -2.855469 L 15.695312 -11.414062 L 12.84375 -11.414062 Z M 12.84375 -2.855469 "/></g></g></g><g fill="#ffffff" fill-opacity="1"><g transform="translate(131.992598, 26.535984)"><g><path d="M 4.28125 0 L 15.695312 0 L 15.695312 -19.976562 L 12.84375 -19.976562 L 12.84375 -14.269531 L 4.28125 -14.269531 L 4.28125 -11.414062 L 12.84375 -11.414062 L 12.84375 -2.855469 L 4.28125 -2.855469 Z M 1.425781 -2.855469 L 4.28125 -2.855469 L 4.28125 -11.414062 L 1.425781 -11.414062 Z M 1.425781 -2.855469 "/></g></g></g><g fill="#ffffff" fill-opacity="1"><g transform="translate(149.10874, 26.535984)"><g><path d="M 1.425781 -2.855469 L 4.28125 -2.855469 L 4.28125 -5.707031 L 12.84375 -5.707031 L 12.84375 -8.5625 L 4.28125 -8.5625 L 4.28125 -11.414062 L 1.425781 -11.414062 Z M 4.28125 0 L 12.84375 0 L 12.84375 -2.855469 L 4.28125 -2.855469 Z M 4.28125 -11.414062 L 12.84375 -11.414062 L 12.84375 -14.269531 L 4.28125 -14.269531 Z M 12.84375 -8.5625 L 15.695312 -8.5625 L 15.695312 -11.414062 L 12.84375 -11.414062 Z M 12.84375 -8.5625 "/></g></g></g><g fill="#ffffff" fill-opacity="1"><g transform="translate(166.224881, 26.535984)"><g><path d="M 1.425781 0 L 4.28125 0 L 4.28125 -8.5625 L 7.132812 -8.5625 L 7.132812 -11.414062 L 4.28125 -11.414062 L 4.28125 -14.269531 L 1.425781 -14.269531 Z M 7.132812 -11.414062 L 12.84375 -11.414062 L 12.84375 -14.269531 L 7.132812 -14.269531 Z M 7.132812 -11.414062 "/></g></g></g><g fill="#ffffff" fill-opacity="1"><g transform="translate(180.488329, 26.535984)"><g><path d="M 4.28125 -11.414062 L 1.425781 -11.414062 L 1.425781 -8.5625 L 4.28125 -8.5625 Z M 1.425781 0 L 9.988281 0 L 9.988281 -2.855469 L 1.425781 -2.855469 Z M 4.28125 -5.707031 L 9.988281 -5.707031 L 9.988281 -8.5625 L 4.28125 -8.5625 Z M 4.28125 -11.414062 L 12.84375 -11.414062 L 12.84375 -14.269531 L 4.28125 -14.269531 Z M 9.988281 -2.855469 L 12.84375 -2.855469 L 12.84375 -5.707031 L 9.988281 -5.707031 Z M 9.988281 -2.855469 "/></g></g></g><g fill="#ffffff" fill-opacity="1"><g transform="translate(194.751777, 26.535984)"><g><path d="M 7.132812 -14.269531 L 4.28125 -14.269531 L 4.28125 -5.707031 L 7.132812 -5.707031 Z M 1.425781 2.855469 L 4.28125 2.855469 L 4.28125 -5.707031 L 1.425781 -5.707031 Z M 7.132812 -14.269531 L 9.988281 -14.269531 L 9.988281 -22.832031 L 7.132812 -22.832031 Z M 7.132812 -14.269531 "/></g></g></g><g fill="#ffffff" fill-opacity="1"><g transform="translate(206.162533, 26.535984)"><g><path d="M 9.988281 -8.5625 L 7.132812 -8.5625 L 7.132812 -5.707031 L 9.988281 -5.707031 Z M 1.425781 0 L 4.28125 0 L 4.28125 -2.855469 L 1.425781 -2.855469 Z M 1.425781 -17.125 L 4.28125 -17.125 L 4.28125 -19.976562 L 1.425781 -19.976562 Z M 4.28125 -2.855469 L 7.132812 -2.855469 L 7.132812 -5.707031 L 4.28125 -5.707031 Z M 4.28125 -14.269531 L 7.132812 -14.269531 L 7.132812 -17.125 L 4.28125 -17.125 Z M 7.132812 -11.414062 L 9.988281 -11.414062 L 9.988281 -14.269531 L 7.132812 -14.269531 Z M 9.988281 -8.5625 L 12.84375 -8.5625 L 12.84375 -11.414062 L 9.988281 -11.414062 Z M 9.988281 -8.5625 "/></g></g></g></svg>